<svg width="15" height="22" viewBox="0 0 15 22" fill="none" xmlns="http://www.w3.org/2000/svg">
<path d="M8.36395 1C8.36395 0.447715 7.91624 0 7.36395 0C6.81167 0 6.36395 0.447715 6.36395 1H7.36395L8.36395 1ZM6.65685 21.7071C7.04737 22.0976 7.68054 22.0976 8.07106 21.7071L14.435 15.3431C14.8255 14.9526 14.8255 14.3195 14.435 13.9289C14.0445 13.5384 13.4113 13.5384 13.0208 13.9289L7.36395 19.5858L1.7071 13.9289C1.31657 13.5384 0.683409 13.5384 0.292885 13.9289C-0.0976396 14.3195 -0.0976396 14.9526 0.292885 15.3431L6.65685 21.7071ZM7.36395 1H6.36395L6.36395 21H7.36395H8.36395L8.36395 1L7.36395 1Z" fill="white"/>
</svg>
